<?xml version="1.0" encoding="UTF-8"?>
<svg xmlns="http://www.w3.org/2000/svg" xmlns:xlink="http://www.w3.org/1999/xlink" width="375pt" height="374.999991pt" viewBox="0 0 375 374.999991" version="1.2">
<defs>
<clipPath id="clip1">
  <path d="M 29.722656 29.722656 L 345.472656 29.722656 L 345.472656 345.472656 L 29.722656 345.472656 Z M 29.722656 29.722656 "/>
</clipPath>
</defs>
<g id="surface1">
<g clip-path="url(#clip1)" clip-rule="nonzero">
<path style=" stroke:none;fill-rule:nonzero;fill:rgb(100%,74.119568%,34.899902%);fill-opacity:1;" d="M 187.597656 29.722656 C 181.457031 29.722656 175.3125 30.113281 169.171875 30.8125 L 168.859375 30.578125 C 168.78125 30.65625 168.703125 30.734375 168.703125 30.8125 C 96.082031 39.597656 38.46875 97.753906 30.695312 170.6875 L 30.148438 171.074219 L 30.539062 171.773438 C 29.996094 176.984375 29.761719 182.273438 29.761719 187.636719 C 29.761719 274.640625 100.59375 345.472656 187.597656 345.472656 C 274.601562 345.472656 345.433594 274.640625 345.433594 187.636719 C 345.433594 100.632812 274.601562 29.722656 187.597656 29.722656 Z M 322.265625 206.761719 C 315.886719 226.277344 302.515625 232.808594 289.609375 239.109375 C 276.777344 245.40625 264.648438 251.316406 259.828125 268.652344 C 254.386719 289.101562 240.546875 294.390625 227.171875 299.519531 C 217.222656 303.332031 207.8125 306.90625 201.980469 316.082031 L 201.828125 316.003906 C 193.195312 331.242188 182.15625 337.386719 171.582031 342.207031 C 155.175781 340.496094 139.234375 336.21875 124.152344 329.457031 C 129.75 326.269531 135.816406 321.371094 139.160156 312.738281 L 139.234375 312.738281 C 139.3125 312.507812 139.390625 312.273438 139.390625 312.039062 C 139.625 311.339844 139.859375 310.640625 140.089844 309.863281 L 140.011719 309.863281 C 144.757812 294.234375 156.03125 289.023438 167.925781 283.503906 C 181.53125 277.207031 195.527344 270.753906 201.980469 249.214844 L 202.058594 249.214844 C 206.257812 231.253906 218.308594 225.347656 231.140625 219.125 C 244.433594 212.59375 258.273438 205.910156 264.960938 185.613281 C 264.960938 185.539062 265.039062 185.382812 265.039062 185.304688 C 265.425781 184.214844 265.738281 183.050781 266.050781 181.882812 L 265.972656 181.882812 C 270.871094 166.800781 282.144531 161.355469 293.960938 155.523438 C 307.492188 148.917969 321.484375 142.074219 328.09375 121.082031 C 336.957031 139.664062 341.933594 159.878906 342.867188 180.40625 C 334.160156 185.382812 325.761719 192.144531 322.265625 206.761719 Z M 224.296875 136.242188 C 217.921875 155.757812 204.546875 162.289062 191.5625 168.664062 C 178.734375 174.886719 166.605469 180.871094 161.785156 198.210938 C 155.875 220.449219 142.191406 226.824219 128.972656 232.964844 C 117.308594 238.410156 105.335938 244.007812 99.503906 260.335938 C 94.839844 273.628906 83.175781 279.074219 71.980469 284.359375 C 70.503906 285.058594 69.027344 285.757812 67.550781 286.460938 C 55.886719 272.308594 46.789062 256.214844 40.722656 238.953125 C 44.613281 236 47.878906 232.265625 50.210938 227.988281 L 50.445312 228.066406 C 55.496094 214.148438 66.304688 209.171875 77.65625 203.964844 C 91.261719 197.667969 105.257812 191.214844 111.710938 169.675781 L 111.789062 169.675781 C 115.988281 151.714844 128.039062 145.804688 140.867188 139.585938 C 154.164062 133.054688 168.003906 126.289062 174.691406 106.074219 L 174.769531 105.765625 C 175.15625 104.675781 175.46875 103.507812 175.78125 102.34375 L 175.703125 102.34375 C 180.601562 87.257812 191.875 81.816406 203.691406 75.984375 C 217.453125 69.296875 231.605469 62.300781 238.058594 40.6875 C 256.484375 47.0625 273.589844 56.859375 288.441406 69.609375 L 288.054688 69.53125 C 282.144531 91.691406 267.992188 98.53125 254.386719 105.21875 C 241.324219 111.441406 228.804688 117.582031 224.296875 136.242188 Z M 166.683594 33.453125 C 159.917969 41.617188 151.054688 45.972656 142.5 50.171875 C 129.285156 56.625 116.84375 62.765625 112.332031 81.351562 C 105.957031 100.867188 92.585938 107.398438 79.601562 113.773438 C 66.769531 119.992188 54.640625 125.980469 49.820312 143.316406 C 46.867188 154.59375 41.65625 162.601562 33.261719 168.898438 C 41.65625 98.765625 96.863281 42.863281 166.683594 33.453125 Z M 32.871094 172.007812 C 39.09375 167.730469 47.101562 160.5 51.53125 145.882812 L 51.609375 145.882812 C 55.730469 127.921875 67.859375 122.015625 80.6875 115.792969 C 94.0625 109.261719 107.746094 102.5 114.511719 82.28125 C 114.511719 82.207031 114.589844 82.050781 114.589844 81.972656 C 114.976562 80.882812 115.289062 79.71875 115.597656 78.550781 L 115.523438 78.550781 C 120.421875 63.46875 131.695312 57.945312 143.511719 52.191406 C 152.921875 47.605469 162.71875 42.785156 170.027344 32.988281 C 175.78125 32.367188 181.6875 32.054688 187.597656 32.054688 C 204.003906 32.054688 220.332031 34.621094 235.960938 39.753906 C 229.738281 60.511719 216.054688 67.199219 202.757812 73.652344 C 189.464844 80.105469 177.101562 86.25 172.589844 104.832031 C 166.214844 124.347656 152.84375 130.878906 139.859375 137.175781 C 127.027344 143.472656 114.898438 149.382812 110.078125 166.722656 C 104.171875 188.878906 90.175781 195.335938 76.722656 201.554688 C 65.449219 206.761719 54.71875 211.738281 49.121094 225.035156 C 47.023438 229.46875 43.914062 233.355469 40.023438 236.386719 C 34.738281 220.679688 32.09375 204.199219 32.09375 187.558594 C 32.09375 182.347656 32.328125 177.140625 32.871094 172.007812 Z M 69.105469 288.167969 L 72.992188 286.304688 C 83.722656 281.25 94.761719 276.117188 100.359375 264.300781 L 100.671875 264.378906 C 105.648438 246.339844 117.464844 240.820312 129.984375 234.988281 C 143.277344 228.765625 157.042969 222.390625 163.496094 200.777344 L 163.574219 200.777344 C 167.769531 182.816406 179.824219 176.90625 192.652344 170.6875 C 205.945312 164.15625 219.785156 157.390625 226.472656 137.175781 C 226.472656 137.097656 226.550781 136.941406 226.550781 136.863281 C 226.941406 135.777344 227.25 134.609375 227.5625 133.445312 L 227.484375 133.445312 C 232.382812 118.359375 243.65625 112.917969 255.476562 107.085938 C 269.390625 100.242188 283.777344 93.246094 290.152344 70.777344 C 305.234375 83.992188 317.597656 100.011719 326.617188 117.894531 C 320.632812 139.820312 306.558594 146.738281 293.027344 153.347656 C 279.8125 159.800781 267.371094 165.945312 262.863281 184.527344 C 256.484375 204.042969 243.113281 210.574219 230.207031 216.871094 C 217.375 223.089844 205.246094 229.078125 200.425781 246.417969 C 194.519531 268.578125 180.523438 275.03125 167.070312 281.25 C 154.085938 287.238281 141.878906 292.914062 137.292969 311.183594 C 133.949219 320.28125 127.339844 325.023438 121.585938 328.132812 C 101.371094 318.804688 83.566406 305.121094 69.105469 288.167969 Z M 187.597656 343.0625 C 183.710938 343.0625 179.898438 342.90625 176.089844 342.671875 C 185.5 338.007812 195.0625 331.789062 202.914062 318.726562 L 203.070312 318.804688 C 208.511719 309.242188 217.921875 305.585938 227.949219 301.777344 C 241.402344 296.644531 255.320312 291.28125 261.460938 271.375 L 261.539062 271.375 C 265.738281 253.414062 277.789062 247.503906 290.617188 241.285156 C 303.914062 234.753906 317.753906 227.988281 324.441406 207.773438 L 324.519531 207.464844 C 324.90625 206.375 325.21875 205.207031 325.53125 204.042969 L 325.453125 204.042969 C 329.027344 193.078125 335.871094 187.402344 343.023438 183.128906 C 343.101562 184.605469 343.101562 186.160156 343.101562 187.636719 C 343.101562 273.320312 273.359375 343.0625 187.597656 343.0625 Z M 187.597656 343.0625 "/>
</g>
</g>
</svg>
